#!OML:ASF H:\Dans Jumps\Project 1\Capture day 1\Session 1\subject.ASF
:FULLY-SPECIFIED
:DEGREES
371
root 0.164096 17.6298 -7.76264 17.4218 0.985296 0.266073
lowerback 6.62844 -0.130123 -1.77545
upperback 2.0157 -0.253261 1.69754
thorax -1.62152 -0.127211 2.7672
lowerneck -10.9183 0.403379 -2.19141
upperneck 13.6572 1.04424 -0.791879
head 5.92567 0.332521 0.194811
rclavicle 3.77691e-015 -2.38542e-015
rhumerus -7.46617 -4.60663 -83.8581
rradius 32.4932
rwrist 26.858
rhand -23.0188 -24.4572
rfingers 7.12502
rthumb 3.42496 -54.4094
lclavicle 3.77691e-015 -2.38542e-015
lhumerus -7.38011 -13.0177 85.4978
lradius 28.2569
lwrist 22.5724
lhand -28.2922 -11.2308
lfingers 7.12502
lthumb -1.66808 18.7425
rfemur -11.9535 -5.41132 19.0054
rtibia 36.7773
rfoot -4.52702 -5.89739
rtoes -25.4724
lfemur -18.2177 6.31043 -16.9111
ltibia 43.7482
lfoot 3.77724 -3.92143
ltoes -33.4596
372
root 0.164285 17.8658 -7.43082 16.3853 0.999082 0.180375
lowerback 5.48935 -0.153368 -1.63463
upperback 2.1979 -0.2664 1.63883
thorax -0.800598 -0.14556 2.6191
lowerneck -10.0162 0.398592 -2.17385
upperneck 14.6176 1.01319 -0.723291
head 6.07377 0.315388 0.210655
rclavicle 5.36719e-015 2.10712e-014
rhumerus -8.08674 -4.28838 -83.8935
rradius 32.3562
rwrist 27.1266
rhand -22.6107 -24.3042
rfingers 7.12502
rthumb 3.81901 -54.2498
lclavicle 5.36719e-015 2.10712e-014
lhumerus -8.08691 -13.7417 85.6691
lradius 28.4264
lwrist 23.0869
lhand -27.98 -11.1346
lfingers 7.12502
lthumb -1.3666 18.8407
rfemur -9.57383 -5.27545 18.7569
rtibia 34.9598
rfoot 1.01944 -5.37863
rtoes -22.9335
lfemur -15.8475 5.57549 -16.4816
ltibia 41.7467
lfoot 9.30368 -5.33053
ltoes -30.7232
373
root 0.164532 18.1051 -7.10573 15.4591 1.01938 0.0615257
lowerback 4.43663 -0.178452 -1.47309
upperback 2.34809 -0.284723 1.59768
thorax -0.0600245 -0.163507 2.47955
lowerneck -9.25533 0.411393 -2.08718
upperneck 15.5844 1.01008 -0.723683
head 6.24851 0.310132 0.195975
rclavicle -1.19271e-015 -3.97569e-016
rhumerus -8.69739 -4.01417 -83.9206
rradius 32.2367
rwrist 27.3544
rhand -22.1714 -24.1796
rfingers 7.12502
rthumb 4.2433 -54.1171
lclavicle -1.19271e-015 -3.97569e-016
lhumerus -8.79991 -14.39 85.8612
lradius 28.5876
lwrist 23.5888
lhand -27.5896 -10.9376
lfingers 7.12502
lthumb -0.989579 19.0399
rfemur -7.60544 -4.9932 18.6085
rtibia 33.5071
rfoot 6.64387 -5.53142
rtoes -18.4085
lfemur -13.8267 4.73375 -16.1051
ltibia 40.0336
lfoot 14.7684 -6.10207
ltoes -26.9048
374
root 0.164416 18.3459 -6.7897 14.6842 1.05858 -0.0848881
lowerback 3.45338 -0.208027 -1.29655
upperback 2.45695 -0.312478 1.57395
thorax 0.600585 -0.183352 2.35095
lowerneck -8.64434 0.433519 -1.96024
upperneck 16.5304 1.0244 -0.759755
head 6.44328 0.313209 0.164909
rclavicle 1.0138e-014 -6.75868e-015
rhumerus -9.28913 -3.85603 -83.9439
rradius 32.1539
rwrist 27.4969
rhand -21.8049 -24.0717
rfingers 7.12502
rthumb 4.59714 -54.0018
lclavicle 1.0138e-014 -6.75868e-015
lhumerus -9.49515 -14.9041 86.0749
lradius 28.7275
lwrist 23.9849
lhand -27.1078 -10.5984
lfingers 7.12502
lthumb -0.524175 19.3807
rfemur -6.13531 -4.64597 18.5786
rtibia 32.5646
rfoot 11.8862 -6.33504
rtoes -11.7914
lfemur -12.2633 3.87861 -15.7879
ltibia 38.7605
lfoot 19.5742 -6.26537
ltoes -22.5907
375
root 0.16354 18.5864 -6.48539 14.0971 1.13047 -0.244059
lowerback 2.52793 -0.247135 -1.12055
upperback 2.51539 -0.356869 1.56447
thorax 1.17889 -0.209077 2.23812
lowerneck -8.12843 0.449315 -1.84135
upperneck 17.3871 1.03135 -0.781061
head 6.62684 0.314747 0.13912
rclavicle -4.87022e-015 -4.37326e-015
rhumerus -9.85201 -3.85997 -83.97
rradius 32.1127
rwrist 27.5443
rhand -21.5648 -24.0047
rfingers 7.12502
rthumb 4.82904 -53.9297
lclavicle -4.87022e-015 -4.37326e-015
lhumerus -10.1525 -15.2397 86.3065
lradius 28.8277
lwrist 24.2108
lhand -26.5595 -10.1516
lfingers 7.12502
lthumb 0.00539089 19.8282
rfemur -5.24685 -4.32075 18.6616
rtibia 32.278
rfoot 16.228 -7.62639
rtoes -3.78848
lfemur -11.2564 3.09815 -15.5337
ltibia 38.0646
lfoot 23.2149 -5.96328
ltoes -18.4173
376
root 0.161602 18.824 -6.19536 13.7116 1.24352 -0.401424
lowerback 1.66242 -0.296407 -0.961987
upperback 2.5293 -0.418603 1.56698
thorax 1.67969 -0.241793 2.14738
lowerneck -7.70341 0.461453 -1.7456
upperneck 18.1067 1.03204 -0.770093
head 6.78291 0.316133 0.126827
rclavicle -5.46658e-015 -3.97569e-016
rhumerus -10.3579 -4.08339 -83.9995
rradius 32.0963
rwrist 27.5675
rhand -21.48 -23.9745
rfingers 7.12502
rthumb 4.91087 -53.8976
lclavicle -5.46658e-015 -3.97569e-016
lhumerus -10.7341 -15.3695 86.5528
lradius 28.867
lwrist 24.2413
lhand -25.9777 -9.66271
lfingers 7.12502
lthumb 0.567251 20.3163
rfemur -4.99018 -4.08907 18.8346
rtibia 32.7506
rfoot 19.31 -9.03378
rtoes 4.3091
lfemur -10.8665 2.47093 -15.3385
ltibia 38.041
lfoot 25.3802 -5.40249
ltoes -14.989
